<?xml version="1.0" encoding="utf-8"?>
<!-- Generator: Adobe Illustrator 23.0.0, SVG Export Plug-In . SVG Version: 6.00 Build 0)  -->
<svg version="1.1" id="Livello_1" xmlns="http://www.w3.org/2000/svg" xmlns:xlink="http://www.w3.org/1999/xlink" x="0px" y="0px"
	 viewBox="0 0 715.8 715.8" style="enable-background:new 0 0 715.8 715.8;" xml:space="preserve">
<style type="text/css">
	.st0{fill:#FFFFFF;}
</style>
<title>logo-light</title>
<path class="st0" d="M104.7,104.8C174.5,34.9,258.9,0,357.9,0c100.8,0,185.6,34.9,254.6,104.8c68.8,69.7,103.2,155.1,103.3,256
	c0,99-34.4,182.9-103.3,251.7S458.8,715.8,357.9,715.8c-99,0-183.4-34.4-253.3-103.3C34.9,543.7,0,459.8,0,360.8
	C0,259.9,34.9,174.6,104.7,104.8z"/>
<path d="M246.7,225.7v262h-15.9v-262H246.7z"/>
<path d="M439.7,309.4c14.4,11,24.2,25.4,29.4,43.4v-57.4h16v192.3h-16v-57.4c-5.2,17.9-15,32.4-29.4,43.4
	c-14.4,11-32.1,16.5-53.1,16.5c-17.9,0-33.8-4-47.6-11.9s-24.6-19.4-32.4-34.3c-7.8-15-11.7-32.5-11.7-52.6
	c0-20.1,3.9-37.5,11.7-52.4c7.8-14.9,18.6-26.3,32.4-34.2s29.7-11.9,47.6-11.9C407.6,292.9,425.3,298.4,439.7,309.4z M332.6,329.7
	c-14.3,15.1-21.4,35.7-21.4,61.6c0,26.2,7.1,46.9,21.2,62c14.2,15.1,33.4,22.7,57.7,22.7c15.1,0,28.7-3.5,40.7-10.4
	c12.1-7,21.9-17.3,28.2-29.8c6.7-12.9,10.1-27.7,10.1-44.4c0-16.8-3.4-31.5-10.1-44.3c-6.4-12.3-16.1-22.6-28.1-29.6
	c-12-7-25.6-10.4-40.7-10.5C366,307.1,346.9,314.6,332.6,329.7L332.6,329.7z"/>
</svg>
